<svg xmlns="http://www.w3.org/2000/svg" xmlns:xlink="http://www.w3.org/1999/xlink" width="920" height="624.46"><rect width="920" height="624.46" rx="5" ry="5" class="a"/><svg y="0%" x="0%"><circle cx="20" cy="20" r="6" fill="#ff5f58"/><circle cx="40" cy="20" r="6" fill="#ffbd2e"/><circle cx="60" cy="20" r="6" fill="#18c132"/></svg><svg height="564.46" viewBox="0 0 88 56.446" width="880" x="15" xmlns="http://www.w3.org/2000/svg" xmlns:xlink="http://www.w3.org/1999/xlink" y="50"><style>@keyframes m{0%{transform:translateX(0)}.9%{transform:translateX(-88px)}13.4%{transform:translateX(-176px)}22.7%{transform:translateX(-264px)}22.8%{transform:translateX(-352px)}33.7%{transform:translateX(-440px)}33.8%{transform:translateX(-528px)}40%{transform:translateX(-616px)}42.8%{transform:translateX(-704px)}45.7%{transform:translateX(-792px)}48.5%{transform:translateX(-880px)}51.3%{transform:translateX(-968px)}54.1%{transform:translateX(-1056px)}56.9%{transform:translateX(-1144px)}59.7%{transform:translateX(-1232px)}62.5%{transform:translateX(-1320px)}73.4%{transform:translateX(-1408px)}81.2%{transform:translateX(-1496px)}81.3%{transform:translateX(-1584px)}to{transform:translateX(-1672px)}}.a{fill:#282d35}.f{fill:#a8cc8c;font-weight:700;white-space:pre}.g,.h,.i,.j{fill:#b9c0cb;white-space:pre}.h,.i,.j{fill:#66c2cd}.i,.j{fill:#a8cc8c}.j{fill:#dbab79}</style><g font-family="Monaco,Consolas,Menlo,'Bitstream Vera Sans Mono','Powerline Symbols',monospace" font-size="1.67"><defs><symbol id="1"><text y="1.67" class="f">🌱</text><text x="3.006" y="1.67" class="f">plant-genomics-mcp</text><text x="22.044" y="1.67" class="f">—</text><text x="24.048" y="1.67" class="f">stdio</text><text x="30.06" y="1.67" class="f">MCP</text><text x="34.068" y="1.67" class="f">demo</text></symbol><symbol id="2"><text y="1.67" class="g">$</text><text x="2.004" y="1.67" class="g">plant-genomics-mcp</text><text x="22.044" y="1.67" class="g">#</text><text x="24.048" y="1.67" class="g">boot</text><text x="29.058" y="1.67" class="g">stdio</text><text x="35.07" y="1.67" class="g">server</text></symbol><symbol id="3"><text y="1.67" class="h">→</text><text x="2.004" y="1.67" class="g">initialize</text></symbol><symbol id="4"><text y="1.67" class="i">←</text><text x="2.004" y="1.67" class="g">serverInfo:</text><text x="14.028" y="1.67" class="g">plant-genomics-mcp</text><text x="33.066" y="1.67" class="g">v1.0.4</text></symbol><symbol id="5"><text y="1.67" class="h">→</text><text x="2.004" y="1.67" class="g">tools/list</text></symbol><symbol id="6"><text y="1.67" class="i">←</text><text x="2.004" y="1.67" class="g">32</text><text x="5.01" y="1.67" class="g">tools</text><text x="11.022" y="1.67" class="g">registered:</text></symbol><symbol id="7"><text x="2.004" y="1.67" class="j">•</text><text x="4.008" y="1.67" class="g">ensembl_plants_lookup_locus</text></symbol><symbol id="8"><text x="2.004" y="1.67" class="j">•</text><text x="4.008" y="1.67" class="g">resolve_locus_to_uniprot</text></symbol><symbol id="9"><text x="2.004" y="1.67" class="j">•</text><text x="4.008" y="1.67" class="g">locus_literature</text></symbol><symbol id="10"><text x="2.004" y="1.67" class="j">•</text><text x="4.008" y="1.67" class="g">blast_sequence</text></symbol><symbol id="11"><text x="2.004" y="1.67" class="j">•</text><text x="4.008" y="1.67" class="g">string_interactions</text></symbol><symbol id="12"><text x="2.004" y="1.67" class="j">•</text><text x="4.008" y="1.67" class="g">atted_coexpression</text></symbol><symbol id="13"><text x="2.004" y="1.67" class="j">•</text><text x="4.008" y="1.67" class="g">analyze_locus_synth</text></symbol><symbol id="14"><text x="2.004" y="1.67" class="j">•</text><text x="4.008" y="1.67" class="g">biological_context_synth</text></symbol><symbol id="15"><text x="2.004" y="1.67" class="g">…</text><text x="4.008" y="1.67" class="g">+24</text><text x="8.016" y="1.67" class="g">more</text></symbol><symbol id="16"><text y="1.67" class="g">$</text><text x="2.004" y="1.67" class="g">#</text><text x="4.008" y="1.67" class="g">resources/read</text><text x="19.038" y="1.67" class="g">pgmcp://organisms/coverage</text></symbol><symbol id="17"><text y="1.67" class="h">→</text><text x="2.004" y="1.67" class="g">resources/read</text></symbol><symbol id="18"><text y="1.67" class="i">←</text><text x="2.004" y="1.67" class="g">coverage</text><text x="11.022" y="1.67" class="g">matrix</text><text x="18.036" y="1.67" class="g">(first</text><text x="25.05" y="1.67" class="g">6</text><text x="27.054" y="1.67" class="g">lines):</text></symbol><symbol id="19"><text y="1.67" class="g">#</text><text x="2.004" y="1.67" class="g">Organism</text><text x="11.022" y="1.67" class="g">Coverage</text><text x="20.04" y="1.67" class="g">Matrix</text></symbol><symbol id="20"><text y="1.67" class="g">|</text><text x="2.004" y="1.67" class="g">canonical</text><text x="12.024" y="1.67" class="g">|</text><text x="14.028" y="1.67" class="g">scientific</text><text x="25.05" y="1.67" class="g">|</text><text x="27.054" y="1.67" class="g">ncbi_taxid</text><text x="38.076" y="1.67" class="g">|</text><text x="40.08" y="1.67" class="g">ensembl</text><text x="48.096" y="1.67" class="g">|</text><text x="50.1" y="1.67" class="g">phytozome</text><text x="60.12" y="1.67" class="g">|</text><text x="62.124" y="1.67" class="g">string</text><text x="69.138" y="1.67" class="g">|</text><text x="71.142" y="1.67" class="g">europe_pmc</text><text x="82.164" y="1.67" class="g">|</text></symbol><symbol id="21"><text y="1.67" class="g">|</text><text x="2.004" y="1.67" class="g">---</text><text x="6.012" y="1.67" class="g">|</text><text x="8.016" y="1.67" class="g">---</text><text x="12.024" y="1.67" class="g">|</text><text x="14.028" y="1.67" class="g">---</text><text x="18.036" y="1.67" class="g">|</text><text x="20.04" y="1.67" class="g">---</text><text x="24.048" y="1.67" class="g">|</text><text x="26.052" y="1.67" class="g">---</text><text x="30.06" y="1.67" class="g">|</text><text x="32.064" y="1.67" class="g">---</text><text x="36.072" y="1.67" class="g">|</text><text x="38.076" y="1.67" class="g">---</text><text x="42.084" y="1.67" class="g">|</text></symbol><symbol id="22"><text y="1.67" class="g">|</text><text x="2.004" y="1.67" class="g">arabidopsis_thaliana</text><text x="23.046" y="1.67" class="g">|</text><text x="25.05" y="1.67" class="g">Arabidopsis</text><text x="37.074" y="1.67" class="g">thaliana</text><text x="46.092" y="1.67" class="g">|</text><text x="48.096" y="1.67" class="g">3702</text><text x="53.106" y="1.67" class="g">|</text><text x="55.11" y="1.67" class="g">arabidopsis_thaliana</text><text x="76.152" y="1.67" class="g">|</text><text x="78.156" y="1.67" class="g">167</text><text x="82.164" y="1.67" class="g">|</text><text x="84.168" y="1.67" class="g">3702</text></symbol><symbol id="23"><text x="1.002" y="1.67" class="g">|</text><text x="3.006" y="1.67" class="g">None</text><text x="8.016" y="1.67" class="g">(no</text><text x="12.024" y="1.67" class="g">strip)</text><text x="19.038" y="1.67" class="g">|</text></symbol><symbol id="24"><text y="1.67" class="g">|</text><text x="2.004" y="1.67" class="g">oryza_sativa</text><text x="15.03" y="1.67" class="g">|</text><text x="17.034" y="1.67" class="g">Oryza</text><text x="23.046" y="1.67" class="g">sativa</text><text x="30.06" y="1.67" class="g">|</text><text x="32.064" y="1.67" class="g">39947</text><text x="38.076" y="1.67" class="g">|</text><text x="40.08" y="1.67" class="g">oryza_sativa</text><text x="53.106" y="1.67" class="g">|</text><text x="55.11" y="1.67" class="g">323</text><text x="59.118" y="1.67" class="g">|</text><text x="61.122" y="1.67" class="g">39947</text><text x="67.134" y="1.67" class="g">|</text><text x="69.138" y="1.67" class="g">rice</text><text x="74.148" y="1.67" class="g">|</text></symbol><symbol id="a"><path fill="transparent" d="M0 0h88v27H0z"/></symbol><symbol id="b"><path fill="#6f7683" d="M0 0h1.102v2.171H0z"/></symbol></defs><path class="a" d="M0 0h88v56.446H0z"/><g style="animation-duration:6.412856s;animation-iteration-count:infinite;animation-name:m;animation-timing-function:steps(1,end)"><svg width="1760"><svg><use xlink:href="#a"/><use xlink:href="#b" x="-.004"/></svg><svg x="88"><use xlink:href="#a"/><use xlink:href="#b" x="-.004" y="4.317"/><use xlink:href="#1"/></svg><svg x="176"><use xlink:href="#a"/><use xlink:href="#b" x="-.004" y="6.488"/><use xlink:href="#1"/><use xlink:href="#2" y="4.342"/></svg><svg x="264"><use xlink:href="#a"/><use xlink:href="#b" x="-.004" y="8.659"/><use xlink:href="#1"/><use xlink:href="#2" y="4.342"/><use xlink:href="#3" y="6.513"/></svg><svg x="352"><use xlink:href="#a"/><use xlink:href="#b" x="-.004" y="10.83"/><use xlink:href="#1"/><use xlink:href="#2" y="4.342"/><use xlink:href="#3" y="6.513"/><use xlink:href="#4" y="8.684"/></svg><svg x="440"><use xlink:href="#a"/><use xlink:href="#b" x="-.004" y="15.172"/><use xlink:href="#1"/><use xlink:href="#2" y="4.342"/><use xlink:href="#3" y="6.513"/><use xlink:href="#4" y="8.684"/><use xlink:href="#5" y="13.026"/></svg><svg x="528"><use xlink:href="#a"/><use xlink:href="#b" x="-.004" y="17.343"/><use xlink:href="#1"/><use xlink:href="#2" y="4.342"/><use xlink:href="#3" y="6.513"/><use xlink:href="#4" y="8.684"/><use xlink:href="#5" y="13.026"/><use xlink:href="#6" y="15.197"/></svg><svg x="616"><use xlink:href="#a"/><use xlink:href="#b" x="-.004" y="19.514"/><use xlink:href="#1"/><use xlink:href="#2" y="4.342"/><use xlink:href="#3" y="6.513"/><use xlink:href="#4" y="8.684"/><use xlink:href="#5" y="13.026"/><use xlink:href="#6" y="15.197"/><use xlink:href="#7" y="17.368"/></svg><svg x="704"><use xlink:href="#a"/><use xlink:href="#b" x="-.004" y="21.685"/><use xlink:href="#1"/><use xlink:href="#2" y="4.342"/><use xlink:href="#3" y="6.513"/><use xlink:href="#4" y="8.684"/><use xlink:href="#5" y="13.026"/><use xlink:href="#6" y="15.197"/><use xlink:href="#7" y="17.368"/><use xlink:href="#8" y="19.539"/></svg><svg x="792"><use xlink:href="#a"/><use xlink:href="#b" x="-.004" y="23.856"/><use xlink:href="#1"/><use xlink:href="#2" y="4.342"/><use xlink:href="#3" y="6.513"/><use xlink:href="#4" y="8.684"/><use xlink:href="#5" y="13.026"/><use xlink:href="#6" y="15.197"/><use xlink:href="#7" y="17.368"/><use xlink:href="#8" y="19.539"/><use xlink:href="#9" y="21.71"/></svg><svg x="880"><use xlink:href="#a"/><use xlink:href="#b" x="-.004" y="26.027"/><use xlink:href="#1"/><use xlink:href="#2" y="4.342"/><use xlink:href="#3" y="6.513"/><use xlink:href="#4" y="8.684"/><use xlink:href="#5" y="13.026"/><use xlink:href="#6" y="15.197"/><use xlink:href="#7" y="17.368"/><use xlink:href="#8" y="19.539"/><use xlink:href="#9" y="21.71"/><use xlink:href="#10" y="23.881"/></svg><svg x="968"><use xlink:href="#a"/><use xlink:href="#b" x="-.004" y="28.198"/><use xlink:href="#1"/><use xlink:href="#2" y="4.342"/><use xlink:href="#3" y="6.513"/><use xlink:href="#4" y="8.684"/><use xlink:href="#5" y="13.026"/><use xlink:href="#6" y="15.197"/><use xlink:href="#7" y="17.368"/><use xlink:href="#8" y="19.539"/><use xlink:href="#9" y="21.71"/><use xlink:href="#10" y="23.881"/><use xlink:href="#11" y="26.052"/></svg><svg x="1056"><use xlink:href="#a"/><use xlink:href="#b" x="-.004" y="30.369"/><use xlink:href="#1"/><use xlink:href="#2" y="4.342"/><use xlink:href="#3" y="6.513"/><use xlink:href="#4" y="8.684"/><use xlink:href="#5" y="13.026"/><use xlink:href="#6" y="15.197"/><use xlink:href="#7" y="17.368"/><use xlink:href="#8" y="19.539"/><use xlink:href="#9" y="21.71"/><use xlink:href="#10" y="23.881"/><use xlink:href="#11" y="26.052"/><use xlink:href="#12" y="28.223"/></svg><svg x="1144"><use xlink:href="#a"/><use xlink:href="#b" x="-.004" y="32.54"/><use xlink:href="#1"/><use xlink:href="#2" y="4.342"/><use xlink:href="#3" y="6.513"/><use xlink:href="#4" y="8.684"/><use xlink:href="#5" y="13.026"/><use xlink:href="#6" y="15.197"/><use xlink:href="#7" y="17.368"/><use xlink:href="#8" y="19.539"/><use xlink:href="#9" y="21.71"/><use xlink:href="#10" y="23.881"/><use xlink:href="#11" y="26.052"/><use xlink:href="#12" y="28.223"/><use xlink:href="#13" y="30.394"/></svg><svg x="1232"><use xlink:href="#a"/><use xlink:href="#b" x="-.004" y="34.711"/><use xlink:href="#1"/><use xlink:href="#2" y="4.342"/><use xlink:href="#3" y="6.513"/><use xlink:href="#4" y="8.684"/><use xlink:href="#5" y="13.026"/><use xlink:href="#6" y="15.197"/><use xlink:href="#7" y="17.368"/><use xlink:href="#8" y="19.539"/><use xlink:href="#9" y="21.71"/><use xlink:href="#10" y="23.881"/><use xlink:href="#11" y="26.052"/><use xlink:href="#12" y="28.223"/><use xlink:href="#13" y="30.394"/><use xlink:href="#14" y="32.565"/></svg><svg x="1320"><use xlink:href="#a"/><use xlink:href="#b" x="-.004" y="36.882"/><use xlink:href="#1"/><use xlink:href="#2" y="4.342"/><use xlink:href="#3" y="6.513"/><use xlink:href="#4" y="8.684"/><use xlink:href="#5" y="13.026"/><use xlink:href="#6" y="15.197"/><use xlink:href="#7" y="17.368"/><use xlink:href="#8" y="19.539"/><use xlink:href="#9" y="21.71"/><use xlink:href="#10" y="23.881"/><use xlink:href="#11" y="26.052"/><use xlink:href="#12" y="28.223"/><use xlink:href="#13" y="30.394"/><use xlink:href="#14" y="32.565"/><use xlink:href="#15" y="34.736"/></svg><svg x="1408"><use xlink:href="#a"/><use xlink:href="#b" x="-.004" y="41.224"/><use xlink:href="#1"/><use xlink:href="#2" y="4.342"/><use xlink:href="#3" y="6.513"/><use xlink:href="#4" y="8.684"/><use xlink:href="#5" y="13.026"/><use xlink:href="#6" y="15.197"/><use xlink:href="#7" y="17.368"/><use xlink:href="#8" y="19.539"/><use xlink:href="#9" y="21.71"/><use xlink:href="#10" y="23.881"/><use xlink:href="#11" y="26.052"/><use xlink:href="#12" y="28.223"/><use xlink:href="#13" y="30.394"/><use xlink:href="#14" y="32.565"/><use xlink:href="#15" y="34.736"/><use xlink:href="#16" y="39.078"/></svg><svg x="1496"><use xlink:href="#a"/><use xlink:href="#b" x="-.004" y="43.395"/><use xlink:href="#1"/><use xlink:href="#2" y="4.342"/><use xlink:href="#3" y="6.513"/><use xlink:href="#4" y="8.684"/><use xlink:href="#5" y="13.026"/><use xlink:href="#6" y="15.197"/><use xlink:href="#7" y="17.368"/><use xlink:href="#8" y="19.539"/><use xlink:href="#9" y="21.71"/><use xlink:href="#10" y="23.881"/><use xlink:href="#11" y="26.052"/><use xlink:href="#12" y="28.223"/><use xlink:href="#13" y="30.394"/><use xlink:href="#14" y="32.565"/><use xlink:href="#15" y="34.736"/><use xlink:href="#16" y="39.078"/><use xlink:href="#17" y="41.249"/></svg><svg x="1584"><use xlink:href="#a"/><use xlink:href="#b" x="-.004" y="56.421"/><use xlink:href="#2"/><use xlink:href="#3" y="2.171"/><use xlink:href="#4" y="4.342"/><use xlink:href="#5" y="8.684"/><use xlink:href="#6" y="10.855"/><use xlink:href="#7" y="13.026"/><use xlink:href="#8" y="15.197"/><use xlink:href="#9" y="17.368"/><use xlink:href="#10" y="19.539"/><use xlink:href="#11" y="21.71"/><use xlink:href="#12" y="23.881"/><use xlink:href="#13" y="26.052"/><use xlink:href="#14" y="28.223"/><use xlink:href="#15" y="30.394"/><use xlink:href="#16" y="34.736"/><use xlink:href="#17" y="36.907"/><use xlink:href="#18" y="39.078"/><use xlink:href="#19" y="41.249"/><use xlink:href="#20" y="45.591"/><use xlink:href="#21" y="47.762"/><use xlink:href="#22" y="49.933"/><use xlink:href="#23" y="52.104"/><use xlink:href="#24" y="54.275"/></svg><svg x="1672"><use xlink:href="#a"/><use xlink:href="#b" x="-.004" y="56.421"/><use xlink:href="#4"/><use xlink:href="#5" y="4.342"/><use xlink:href="#6" y="6.513"/><use xlink:href="#7" y="8.684"/><use xlink:href="#8" y="10.855"/><use xlink:href="#9" y="13.026"/><use xlink:href="#10" y="15.197"/><use xlink:href="#11" y="17.368"/><use xlink:href="#12" y="19.539"/><use xlink:href="#13" y="21.71"/><use xlink:href="#14" y="23.881"/><use xlink:href="#15" y="26.052"/><use xlink:href="#16" y="30.394"/><use xlink:href="#17" y="32.565"/><use xlink:href="#18" y="34.736"/><use xlink:href="#19" y="36.907"/><use xlink:href="#20" y="41.249"/><use xlink:href="#21" y="43.42"/><use xlink:href="#22" y="45.591"/><use xlink:href="#23" y="47.762"/><use xlink:href="#24" y="49.933"/><text y="55.945" class="f">done.</text></svg></svg></g></g></svg></svg>